<?xml version="1.0" standalone="no"?><!DOCTYPE svg PUBLIC "-//W3C//DTD SVG 1.1//EN" "http://www.w3.org/Graphics/SVG/1.1/DTD/svg11.dtd"><svg class="icon" width="200px" height="200.00px" viewBox="0 0 1024 1024" version="1.1" xmlns="http://www.w3.org/2000/svg"><path fill="#333333" d="M513.203447 0c-184.075049 0-333.281914 149.206864-333.281914 333.260614s149.206864 333.260614 333.281914 333.260614c184.075049 0 333.260614-149.206864 333.260614-333.260614S697.257196 0 513.203447 0zM513.203447 613.782298c-154.936578 0-280.542985-125.585107-280.542985-280.521685s125.606407-280.521685 280.542985-280.521685c154.915278 0 280.542985 125.585107 280.542985 280.521685S668.118725 613.782298 513.203447 613.782298zM386.979339 585.027228l-101.111347-8.03012C181.007836 653.847696 101.984643 788.464025 101.984643 931.579074 101.984643 963.316152 105.456552 1002.678648 111.825267 1023.9787l54.144732 0c-7.327218-21.300052-11.225127-60.534748-11.225127-92.399626C154.744872 772.872387 251.340608 637.467956 386.979339 585.027228zM740.496302 576.997109l-103.475653 8.03012c135.638731 52.462028 232.234467 187.845159 232.234467 346.573146 0 31.864878-3.89791 71.099574-11.203827 92.399626l54.123432 0c6.368716-21.300052 9.840624-60.662548 9.840624-92.399626C921.994045 788.464025 845.313858 653.847696 740.496302 576.997109z" /></svg>