<?xml version="1.0" standalone="no"?><!DOCTYPE svg PUBLIC "-//W3C//DTD SVG 1.1//EN" "http://www.w3.org/Graphics/SVG/1.1/DTD/svg11.dtd"><svg class="icon" width="200px" height="200.00px" viewBox="0 0 1024 1024" version="1.1" xmlns="http://www.w3.org/2000/svg"><path fill="#333333" d="M512 451.669333l165.973333-165.973333a21.333333 21.333333 0 0 1 30.122667 0l30.165333 30.208a21.333333 21.333333 0 0 1 0 30.165333L572.330667 512l165.973333 165.973333a21.333333 21.333333 0 0 1 0 30.122667l-30.208 30.165333a21.333333 21.333333 0 0 1-30.165333 0L512 572.330667l-165.973333 165.973333a21.333333 21.333333 0 0 1-30.122667 0l-30.165333-30.208a21.333333 21.333333 0 0 1 0-30.165333L451.669333 512l-165.973333-165.973333a21.333333 21.333333 0 0 1 0-30.122667l30.208-30.165333a21.333333 21.333333 0 0 1 30.165333 0L512 451.669333z" /></svg>