<?xml version="1.0" standalone="no"?><!DOCTYPE svg PUBLIC "-//W3C//DTD SVG 1.1//EN" "http://www.w3.org/Graphics/SVG/1.1/DTD/svg11.dtd"><svg class="icon" width="200px" height="200.00px" viewBox="0 0 1024 1024" version="1.1" xmlns="http://www.w3.org/2000/svg"><path fill="#333333" d="M957.942003 407.418107c4.937452-6.197142 4.954849-15.143908-0.297782-21.406542L718.393185 100.883665c-1.357927-1.623987-2.981914-2.916423-4.738931-3.89368-2.765997-5.600555-8.532327-9.42772-15.193027-9.42772L326.247924 87.562265c-6.329149 0-11.978822 3.612271-14.877849 8.930393-2.15406 0.994654-4.142343 2.469238-5.733585 4.391007L66.386478 386.011564c-3.048429 3.628644-4.340865 8.16803-3.90903 12.541641-0.464581 4.391007 0.794086 8.964162 3.859911 12.625552L501.444085 929.709497c5.997598 7.175423 16.634866 8.037047 23.825638 2.02103 3.13234-2.650363 5.086855-6.145977 5.799076-9.841136 0.38067-0.379647 0.762363-0.777713 1.110287-1.209548L953.899944 418.089144C956.533934 414.956803 957.859116 411.17978 957.942003 407.418107zM520.830621 727.291344 754.099409 449.304076c8.963139-10.686387 25.00244-12.06171 35.754319-3.032056 10.852162 9.096169 12.211113 25.035186 3.230578 35.755342L542.071388 781.172509c-5.418406 6.445806-13.387915 9.509585-21.240767 8.930393-7.837502 0.579191-15.807011-2.484587-21.224394-8.930393L248.57489 482.027361c-8.979512-10.720156-7.605212-26.659173 3.247974-35.755342 10.769274-9.029654 26.774807-7.65433 35.754319 3.032056L520.830621 727.291344z" /></svg>