<?xml version="1.0" standalone="no"?><!DOCTYPE svg PUBLIC "-//W3C//DTD SVG 1.1//EN" "http://www.w3.org/Graphics/SVG/1.1/DTD/svg11.dtd"><svg class="icon" width="200px" height="200.00px" viewBox="0 0 1024 1024" version="1.1" xmlns="http://www.w3.org/2000/svg"><path fill="#333333" d="M955 465.13a31.91 31.91 0 0 0 2-3.74l0.06-0.13a31.74 31.74 0 0 0 2.08-6.18v-0.13a32 32 0 0 0 0.63-4.14v-0.49q0.06-0.79 0.07-1.58v-0.51-0.22c0-0.6 0-1.19-0.05-1.77v-0.34q-0.06-0.88-0.16-1.74c0-0.15 0-0.29-0.06-0.44a31.83 31.83 0 0 0-0.85-4.18v-0.08a31.76 31.76 0 0 0-1.54-4.33l-112-255.94c-0.06-0.14-0.13-0.27-0.2-0.41-0.22-0.49-0.46-1-0.71-1.46-0.12-0.24-0.26-0.48-0.39-0.71-0.22-0.4-0.45-0.79-0.68-1.19l-0.47-0.76c-0.09-0.15-0.18-0.29-0.27-0.44s-0.31-0.43-0.46-0.64-0.34-0.49-0.52-0.72l-0.87-1.11c-0.16-0.19-0.31-0.39-0.47-0.58-0.46-0.54-0.94-1.07-1.44-1.57l-0.2-0.19q-0.66-0.66-1.36-1.29l-0.54-0.46c-0.37-0.31-0.74-0.62-1.12-0.91l-0.64-0.48q-0.55-0.41-1.11-0.79l-0.68-0.45c-0.39-0.25-0.78-0.48-1.18-0.71l-0.67-0.39c-0.45-0.25-0.92-0.48-1.38-0.71l-0.53-0.26q-1-0.44-2-0.83l-0.53-0.19c-0.49-0.18-1-0.35-1.5-0.51l-0.78-0.22c-0.43-0.12-0.86-0.24-1.3-0.34l-0.85-0.19-1.31-0.24-0.84-0.13c-0.48-0.07-1-0.12-1.45-0.16l-0.72-0.07c-0.73-0.05-1.46-0.08-2.2-0.08H208c-0.74 0-1.47 0-2.2 0.08l-0.72 0.07c-0.48 0-1 0.09-1.45 0.16l-0.84 0.13-1.31 0.24-0.85 0.19c-0.44 0.1-0.87 0.22-1.3 0.34l-0.78 0.22c-0.5 0.16-1 0.33-1.5 0.51l-0.53 0.19q-1 0.38-2 0.83l-0.53 0.26c-0.47 0.23-0.93 0.46-1.38 0.71l-0.67 0.39c-0.4 0.23-0.79 0.47-1.18 0.71l-0.68 0.45q-0.57 0.38-1.11 0.79l-0.64 0.48c-0.38 0.29-0.75 0.6-1.12 0.91l-0.54 0.46q-0.7 0.62-1.36 1.29l-0.2 0.19c-0.5 0.51-1 1-1.44 1.57-0.16 0.19-0.31 0.39-0.47 0.58-0.3 0.36-0.59 0.73-0.87 1.11s-0.35 0.48-0.52 0.72-0.31 0.42-0.46 0.64-0.18 0.29-0.27 0.44l-0.47 0.76c-0.24 0.39-0.46 0.79-0.68 1.19-0.13 0.24-0.26 0.47-0.39 0.71-0.25 0.48-0.48 1-0.71 1.46-0.06 0.14-0.14 0.27-0.2 0.41l-112 255.94a31.76 31.76 0 0 0-1.54 4.33v0.08a31.8 31.8 0 0 0-0.85 4.18l-0.05 0.43q-0.1 0.87-0.16 1.74v0.34c0 0.59-0.05 1.18-0.05 1.77v0.73q0 0.8 0.07 1.58v0.49a32 32 0 0 0 0.63 4.14v0.13a31.76 31.76 0 0 0 2.08 6.19l0.06 0.13a31.89 31.89 0 0 0 2 3.74l0.19 0.3a32.12 32.12 0 0 0 2.49 3.33l0.16 0.2 416 480c0.27 0.31 0.54 0.6 0.82 0.9l0.29 0.32c0.48 0.5 1 1 1.48 1.44l0.42 0.37q0.6 0.53 1.22 1l0.48 0.38c0.52 0.4 1.05 0.79 1.6 1.16l0.09 0.07c0.58 0.39 1.17 0.75 1.77 1.09l0.52 0.29q0.69 0.38 1.39 0.73l0.54 0.26c0.62 0.29 1.25 0.56 1.88 0.81l0.36 0.13q0.8 0.3 1.62 0.56l0.66 0.2q0.76 0.22 1.53 0.41l0.52 0.13q1 0.22 2 0.38l0.55 0.08q0.81 0.11 1.62 0.18l0.62 0.05c0.71 0 1.43 0.08 2.15 0.08s1.44 0 2.15-0.08l0.62-0.05q0.82-0.07 1.62-0.18l0.55-0.08q1-0.16 2-0.38l0.52-0.13q0.77-0.19 1.53-0.41l0.66-0.2q0.82-0.26 1.62-0.56l0.36-0.13c0.64-0.25 1.26-0.52 1.88-0.81l0.54-0.26q0.71-0.35 1.39-0.73l0.52-0.29c0.6-0.35 1.19-0.71 1.77-1.09l0.09-0.07c0.55-0.37 1.08-0.76 1.6-1.16l0.48-0.38q0.62-0.5 1.22-1l0.42-0.37c0.51-0.46 1-0.94 1.48-1.44l0.29-0.32c0.28-0.29 0.55-0.59 0.82-0.9l416-480 0.16-0.2a32.12 32.12 0 0 0 2.49-3.33zM207.15 273.77L265.9 416h-121zM379 416l133-171.74L645 416z m283.43 64L512 844.18 361.58 480z m-370.09 0l115 278.33L166.08 480z m439.33 0h126.25L616.7 758.33z m26.43-64l58.75-142.23L879.07 416z m-56.34-31.24L577.26 224h190.9zM446.74 224l-124.5 160.76L255.84 224z" /></svg>